<svg id="Layer_1" data-name="Layer 1" xmlns="http://www.w3.org/2000/svg" viewBox="0 0 310 60"><defs><style>.cls-1{fill:#900;}.cls-2{fill:#fff;}.cls-3{fill:#191919;}</style></defs><title>Artboard 1</title><rect class="cls-1" width="50.91" height="60"/><polygon class="cls-2" points="31.32 14.48 31.32 17.64 33.51 17.64 33.51 35.27 28.88 35.27 28.88 12.05 31.34 12.05 31.34 8.89 19.79 8.89 19.79 12.05 22.25 12.05 22.25 35.27 17.57 35.27 17.57 17.64 19.75 17.64 19.75 14.48 8.89 14.48 8.89 17.64 11.34 17.64 11.34 38.06 15.34 42.13 22.25 42.13 22.25 46.84 19.8 46.84 19.8 50.91 31.33 50.91 31.33 46.84 28.88 46.84 28.88 42.13 35.74 42.13 39.73 38.06 39.73 17.64 42.19 17.64 42.19 14.48 31.32 14.48"/><path class="cls-3" d="M62.74,48.09,64,47.53a3.21,3.21,0,0,0,3,2.27c1.48,0,2.36-.8,2.36-2,0-1.46-1.24-2.09-2.58-2.73-1.6-.76-3.39-1.56-3.39-3.87a3.18,3.18,0,0,1,3.41-3.12,3.92,3.92,0,0,1,3.75,2.65l-1.22.59a2.77,2.77,0,0,0-2.55-2,1.81,1.81,0,0,0-2,1.82c0,1.46,1.22,2.09,2.53,2.73,1.61.76,3.43,1.58,3.43,3.89,0,1.83-1.44,3.31-3.75,3.31A4.33,4.33,0,0,1,62.74,48.09Z"/><path class="cls-3" d="M72.14,44.54c0-4.19,1.78-6.48,4.48-6.48,2.34,0,3.44,1.65,3.89,4l-1.32.24c-.39-1.9-1.1-2.9-2.59-2.9-1.94,0-3,1.94-3,5.16,0,3.39,1.09,5.28,3.05,5.28,1.48,0,2.27-.95,2.72-3.05l1.31.22c-.49,2.41-1.71,4.11-4,4.11C73.85,51.08,72.14,48.86,72.14,44.54Z"/><path class="cls-3" d="M82.48,38.3h1.43v5.28H89V38.3h1.43V50.86H89v-6H83.91v6H82.48Z"/><path class="cls-3" d="M92.48,44.58c0-4.22,1.92-6.52,4.55-6.52s4.53,2.29,4.53,6.52S99.64,51.09,97,51.09,92.48,48.8,92.48,44.58Zm7.64,0c0-3.33-1.19-5.21-3.09-5.21s-3.12,1.88-3.12,5.21S95.09,49.8,97,49.8,100.12,47.9,100.12,44.58Z"/><path class="cls-3" d="M103.14,44.58c0-4.22,1.92-6.52,4.55-6.52s4.53,2.29,4.53,6.52-1.92,6.52-4.53,6.52S103.14,48.8,103.14,44.58Zm7.64,0c0-3.33-1.19-5.21-3.09-5.21s-3.12,1.88-3.12,5.21,1.19,5.23,3.12,5.23S110.77,47.9,110.77,44.58Z"/><path class="cls-3" d="M114.29,38.3h1.43V49.57h5v1.29h-6.4Z"/><path class="cls-3" d="M125.37,44.58c0-4.22,1.92-6.52,4.55-6.52s4.53,2.29,4.53,6.52-1.92,6.52-4.53,6.52S125.37,48.8,125.37,44.58Zm7.64,0c0-3.33-1.19-5.21-3.09-5.21s-3.12,1.88-3.12,5.21,1.19,5.23,3.12,5.23S133,47.9,133,44.58Z"/><path class="cls-3" d="M136.52,38.3h6.33v1.31h-4.91v4.06h3.58V45h-3.58v5.91h-1.43Z"/><path class="cls-3" d="M148,38.3h1.78L153,48.87h0l3.1-10.57h1.78V50.86h-1.37V40.57h0c-.15.8-.54,2.14-.87,3.19l-2.16,7.09h-1.12l-2.16-7.13c-.3-1-.68-2.33-.86-3.17h0v10.3H148Z"/><path class="cls-3" d="M160.43,38.3h6.42v1.31h-5v4h3.65v1.29h-3.65v4.7h5.28v1.29h-6.7Z"/><path class="cls-3" d="M168.89,38.3h2.77c3.48,0,5.33,1.85,5.33,6.26s-1.9,6.3-5.33,6.3h-2.77Zm3,11.28c2.53,0,3.72-1.49,3.72-5s-1.19-5-3.73-5h-1.51v10Z"/><path class="cls-3" d="M179.11,38.3h1.43V50.86h-1.43Z"/><path class="cls-3" d="M182.66,44.54c0-4.19,1.78-6.48,4.48-6.48,2.34,0,3.44,1.65,3.89,4l-1.32.24c-.39-1.9-1.1-2.9-2.6-2.9-1.94,0-3,1.94-3,5.16,0,3.39,1.09,5.28,3.06,5.28,1.48,0,2.27-.95,2.72-3.05l1.31.22c-.49,2.41-1.71,4.11-4,4.11C184.38,51.08,182.66,48.86,182.66,44.54Z"/><path class="cls-3" d="M193.09,38.3h1.42V50.86h-1.42Z"/><path class="cls-3" d="M197.07,38.3h1.66L202.67,46c.44.85.7,1.36,1.1,2.22h0V38.3h1.31V50.86h-1.31l-4.21-8.1c-.48-.92-.71-1.37-1.19-2.38h0V50.86h-1.31Z"/><path class="cls-3" d="M207.65,38.3h6.41v1.31h-5v4h3.65v1.29h-3.65v4.7h5.28v1.29h-6.7Z"/><path class="cls-3" d="M63,9h4.18V29.31H63Z"/><path class="cls-3" d="M70.42,9h4.32L79.4,18.1c.66,1.29,1,2,1.65,3.49h.06V9H84.9V29.31H81l-5.28-9.87c-.58-1.1-.88-1.68-1.48-3h-.06V29.31H70.42Z"/><path class="cls-3" d="M88.18,9h5.33c5.47,0,9.32,2.25,9.32,10.11S98.9,29.31,93.51,29.31H88.18ZM93.9,25.82c3.52,0,4.75-1.81,4.75-6.73,0-4.75-1.24-6.6-4.78-6.6H92.36V25.82Z"/><path class="cls-3" d="M105.39,9h4.18V29.31h-4.18Z"/><path class="cls-3" d="M115.32,29.31h-3.9l6-20.42h4l6,20.42h-4.2L122.05,25h-5.61Zm5.36-9.59c-.55-2.14-1-3.66-1.38-5.55h-.05c-.36,1.92-.82,3.38-1.4,5.52l-.55,2.09h3.9Z"/><path class="cls-3" d="M129.18,9h4.32l4.67,9.12c.66,1.29,1,2,1.65,3.49h.05V9h3.79V29.31h-3.87l-5.28-9.87c-.58-1.1-.88-1.68-1.49-3H133V29.31h-3.79Z"/><path class="cls-3" d="M149.43,29.31h-3.9l6-20.42h4l6,20.42h-4.2L156.16,25h-5.61Zm5.36-9.59c-.55-2.14-1-3.66-1.38-5.55h-.05c-.36,1.92-.82,3.38-1.4,5.52l-.55,2.09h3.9Z"/><path class="cls-3" d="M169.35,22.27V9h4.18V22c0,2.83.8,4.09,2.89,4.09s2.88-1.29,2.88-4.07V9h4V22.25c0,4.7-2,7.39-6.93,7.39S169.35,26.95,169.35,22.27Z"/><path class="cls-3" d="M186.35,9h4.31l4.67,9.12c.66,1.29,1,2,1.65,3.49H197V9h3.79V29.31H197l-5.28-9.87c-.58-1.1-.88-1.68-1.48-3h-.06V29.31h-3.79Z"/><path class="cls-3" d="M204.19,9h4.18V29.31h-4.18Z"/><path class="cls-3" d="M210.22,9h4.2l2.39,9.62c.49,1.92.85,3.38,1.24,5.41h.06c.41-2,.8-3.44,1.26-5.36L221.84,9h3.9L220,29.39h-4Z"/><path class="cls-3" d="M227.57,9h11.65v3.52h-7.48v4.59h5.39v3.32h-5.39v5.47h7.86v3.44h-12Z"/><path class="cls-3" d="M241.7,9H248c4.29,0,6.9,1.81,6.9,6.38a5.45,5.45,0,0,1-3.35,5.41l3.88,8.55h-4.31l-3.43-7.53h-1.92v7.53H241.7Zm6.21,9.62c2,0,3.05-.85,3.05-3.16s-1-3-3.05-3h-2.12v6.13Z"/><path class="cls-3" d="M256.42,24.83l3.38-1.7c.88,1.76,2.28,3.22,4.26,3.22,1.76,0,2.69-.93,2.69-2.31,0-1.68-1.68-2.45-3.6-3.27-2.66-1.13-5.94-2.42-5.94-6.51,0-3.38,2.75-5.66,6.46-5.66a7.24,7.24,0,0,1,6.84,4.53l-3.24,1.76c-.85-1.7-2-2.86-3.68-2.86a2,2,0,0,0-2.28,2c0,1.62,1.54,2.39,3.35,3.22,2.72,1.18,6.18,2.47,6.18,6.6,0,3.08-2.36,5.8-6.79,5.8A7.85,7.85,0,0,1,256.42,24.83Z"/><path class="cls-3" d="M273.3,9h4.18V29.31H273.3Z"/><path class="cls-3" d="M284.23,12.49h-4.84V9h13.88v3.52h-4.86V29.31h-4.18Z"/><path class="cls-3" d="M300.08,21.34,294.36,9h4.26l3.63,8.57h.05L305.93,9H310l-5.74,12.34v8h-4.18Z"/></svg>